# Blender 3.5.0
# www.blender.org
mtllib pampers.mtl
o Cube
v 0.099780 1.000000 -1.327684
v 0.929330 -0.046769 0.468230
v 0.088375 1.000000 1.063464
v 1.073330 -1.123431 0.314976
v -0.386550 -0.046769 0.467642
v -0.209910 -0.073285 -0.982570
v 0.062466 0.232780 1.063464
v 0.066866 0.232780 -1.327684
v -0.180144 -0.071250 0.747176
v -0.145924 -0.767967 -0.758499
v 0.650901 1.000000 -1.041590
v 0.629227 -0.785582 -0.899428
v 0.229126 -1.005280 -0.790143
v 0.009278 -0.946048 -0.757476
v 0.392631 -0.971625 -0.830545
v -0.145924 -0.767967 0.553754
v 0.588796 1.000000 0.842083
v 0.229126 -1.005280 0.585418
v 0.009278 -0.946048 0.541621
v 0.392631 -0.971625 0.656390
v 0.629227 -0.785582 0.694547
v 0.656973 -0.076809 -1.053795
v 0.594868 -0.076809 0.857516
v -0.450040 -1.166223 0.332034
v 0.845718 1.013579 0.458573
v 0.262191 -1.388333 0.367936
v -0.093924 -1.353782 0.325279
v 0.631736 -1.430689 0.377513
v 0.845718 1.013579 -0.650312
v -0.093924 -1.353782 -0.518471
v 0.929330 -0.046769 -0.621155
v -0.386550 -0.046769 -0.658119
v 1.073330 -1.123431 -0.511694
v -0.450040 -1.166223 -0.528594
v 0.262191 -1.388333 -0.561098
v 0.623252 -1.430689 -0.570593
v 0.845718 1.013579 -0.095870
v -0.222296 -1.386214 -0.096596
v 0.888038 -0.046769 -0.076462
v -0.515796 -1.205779 -0.096596
v 0.246589 -1.483704 -0.096581
v 0.631736 -1.508601 -0.096455
v -0.402989 -0.046769 -0.095239
v 1.073330 -1.154384 -0.098359
v 0.687843 -0.465930 -0.945300
v 0.687843 -0.465930 0.726029
v 0.994328 -0.576944 0.369728
v 0.994328 -0.576944 -0.564164
v 0.967221 -0.607897 -0.097218
v -0.248326 -0.427817 -0.803238
v -0.248326 -0.427817 0.598255
v -0.530054 -0.576944 0.377513
v -0.530054 -0.576944 -0.570593
v -0.622024 -0.576944 -0.096540
v -0.314595 -0.070652 -0.857359
v 0.937517 -1.021548 -0.677656
v 0.736204 1.006790 -0.911342
v -0.012920 -1.223063 -0.668822
v 0.792250 -0.023385 -0.933869
v -0.329946 -0.995981 -0.659800
v 0.262052 -1.283887 -0.668822
v 0.599785 -1.268649 -0.760934
v 0.886147 -0.538472 -0.868861
v -0.355050 -0.480500 -0.706190
v 0.937517 -1.021548 0.475676
v 0.790790 -0.023385 0.686576
v -0.314595 -0.070652 0.659190
v -0.329946 -0.995981 0.460238
v 0.734744 1.006790 0.711522
v 0.262052 -1.283887 0.469747
v -0.012920 -1.223063 0.469747
v 0.599785 -1.268649 0.561819
v 0.886147 -0.538472 0.571469
v -0.355050 -0.480500 0.506491
v 0.845718 1.013579 0.181352
v -0.198474 -1.386214 0.129095
v 0.920443 -0.046769 0.195884
v -0.483576 -1.205779 0.129095
v 0.262191 -1.483704 0.135678
v 0.631736 -1.493124 0.140486
v -0.394770 -0.046769 0.186201
v 1.073330 -1.138907 0.108309
v 1.019742 -0.592420 0.136255
v -0.589804 -0.576944 0.140486
v -0.394770 -0.046769 -0.376679
v 1.073330 -1.138907 -0.305027
v 0.845718 1.013579 -0.373091
v -0.198474 -1.386214 -0.322287
v 0.920443 -0.046769 -0.348809
v -0.483576 -1.205779 -0.322287
v 0.262191 -1.483704 -0.328839
v 0.631736 -1.493124 -0.333567
v 1.019742 -0.592420 -0.330691
v -0.589804 -0.576944 -0.333567
v 0.480530 -0.923381 -0.861271
v 0.480530 -0.923381 0.656390
v 0.924802 -1.407358 0.314976
v 0.924802 -1.407358 -0.511694
v 0.924802 -1.438311 -0.098359
v 0.769760 -1.225715 -0.677656
v 0.769760 -1.225715 0.475676
v 0.924802 -1.422835 0.108309
v 0.924802 -1.422835 -0.305027
v -0.212189 0.478495 0.879309
v 0.131876 0.591745 1.071822
v 0.122514 0.591897 -1.328335
v -0.247009 0.476459 -1.114841
v -0.350353 0.470323 0.467642
v -0.350353 0.470323 -0.658119
v -0.361459 0.458362 -0.095239
v -0.306189 0.512138 -0.908365
v -0.306189 0.512138 0.710830
v -0.353240 0.458362 0.186201
v -0.353240 0.458362 -0.376679
v 0.131876 0.776202 1.071822
v -0.212189 0.728495 0.879309
v 0.122514 0.776354 -1.328335
v -0.247009 0.726459 -1.114841
v -0.371928 0.739738 0.467642
v -0.371928 0.739738 -0.658119
v -0.380369 0.735741 -0.095239
v -0.306189 0.779921 -0.908365
v -0.306189 0.779921 0.710830
v -0.372149 0.735741 0.186201
v -0.372149 0.735741 -0.376679
v -0.212189 0.228495 0.879309
v 0.122514 0.407441 -1.328335
v -0.247009 0.226459 -1.114841
v -0.363823 0.210816 0.467642
v -0.363823 0.210816 -0.658119
v -0.377596 0.204836 -0.095239
v -0.306189 0.244355 -0.908365
v -0.306189 0.244355 0.710830
v -0.369377 0.204836 0.186201
v -0.369377 0.204836 -0.376679
v 0.131876 0.407289 1.071822
v -0.235137 -0.273022 -0.820418
v -0.235137 -0.273022 0.615063
v -0.497358 -0.311857 0.399149
v -0.497358 -0.311857 -0.592059
v -0.572470 -0.311857 -0.096455
v -0.355421 -0.275576 -0.733820
v -0.355421 -0.275576 0.533991
v -0.544449 -0.311857 0.151347
v -0.544449 -0.311857 -0.344257
v -0.062248 0.526354 -1.223535
v -0.062248 0.743582 -1.223535
v -0.062248 0.309126 -1.223535
v -0.065713 0.526202 1.014716
v -0.065713 0.743430 1.014716
v -0.065713 0.308974 1.014716
v -0.130209 0.493430 0.956743
v -0.130209 0.727044 0.956743
v -0.130209 0.259816 0.956743
v 0.033081 0.558974 1.043387
v 0.033081 0.759816 1.043387
v 0.033081 0.358131 1.043387
v -0.154628 0.493582 -1.167315
v -0.154628 0.727196 -1.167315
v -0.154628 0.259968 -1.167315
v 0.030133 0.559126 -1.275935
v 0.030133 0.759968 -1.275935
v 0.030133 0.358283 -1.275935
v -0.216625 -0.638776 -0.778836
v -0.216625 -0.638776 0.574011
v -0.539700 -0.877351 0.367936
v -0.539700 -0.877351 -0.561098
v -0.631669 -0.916907 -0.096581
v -0.410608 -0.745055 -0.693967
v -0.410608 -0.745055 0.494320
v -0.599449 -0.916907 0.135678
v -0.599449 -0.916907 -0.328839
v 0.131876 0.868430 1.072057
v -0.212189 0.853495 0.879309
v 0.122514 0.868582 -1.328335
v -0.247009 0.851459 -1.114841
v -0.371928 0.831851 0.467642
v -0.371928 0.831851 -0.658119
v -0.379035 0.825754 -0.095239
v -0.306189 0.874002 -0.908365
v -0.306189 0.874002 0.710830
v -0.370816 0.825754 0.186201
v -0.370816 0.825754 -0.376679
v -0.062248 0.852196 -1.223535
v -0.065713 0.852044 1.014716
v -0.130209 0.843851 0.956743
v 0.033081 0.860237 1.043387
v -0.154628 0.844003 -1.167315
v 0.030133 0.860389 -1.275935
v 0.346920 1.000000 1.125355
v 0.321012 0.134570 1.125355
v 0.473399 1.000000 0.925604
v 0.467643 0.051533 1.077839
v 0.217648 1.000000 1.121433
v 0.191739 0.183675 1.121433
v 0.372610 0.134570 -1.350362
v 0.405524 1.000000 -1.350362
v 0.187289 0.183675 -1.346454
v 0.220203 1.000000 -1.346454
v 0.534456 0.051533 -1.283494
v 0.547217 1.000000 -1.133286
v 0.015950 0.598210 1.063464
v 0.588796 0.500000 0.842083
v 0.650901 0.500000 -1.041590
v 0.040938 0.598210 -1.327684
v 0.887431 0.483405 0.458573
v 0.887431 0.483405 -0.650312
v 0.888038 0.483405 -0.095870
v 0.736204 0.491702 -0.911342
v 0.734744 0.491702 0.711522
v 0.920443 0.483405 0.181352
v 0.920443 0.483405 -0.373091
v 0.346920 0.549105 1.125355
v 0.473399 0.524552 0.925604
v 0.217648 0.573657 1.121433
v 0.405524 0.549105 -1.191589
v 0.220203 0.573657 -1.346454
v 0.547217 0.524552 -1.133286
v 0.015950 0.397315 1.063464
v 0.588796 0.250000 0.842083
v 0.650901 0.250000 -1.178328
v 0.040938 0.397315 -1.327684
v 0.887431 0.218318 0.458573
v 0.887431 0.218318 -0.650312
v 0.888038 0.218318 -0.095870
v 0.736204 0.234159 -0.911342
v 0.734744 0.234159 0.711522
v 0.920443 0.218318 0.181352
v 0.920443 0.218318 -0.373091
v 0.346920 0.323657 1.125355
v 0.473399 0.286829 1.077839
v 0.217648 0.360486 1.121433
v 0.405524 0.323657 -1.350362
v 0.220203 0.360486 -1.346454
v 0.547217 0.286829 -1.283494
v -0.009362 0.799105 1.056728
v 0.563485 0.750000 0.836209
v 0.627118 0.750000 -1.041590
v 0.017155 0.799105 -1.327684
v 0.868439 0.748492 0.458573
v 0.868439 0.748492 -0.650312
v 0.836034 0.748492 -0.095870
v 0.712420 0.749246 -0.911342
v 0.709432 0.749246 0.705648
v 0.868439 0.748492 0.181352
v 0.868439 0.748492 -0.373091
v 0.321609 0.774552 1.118619
v 0.448087 0.762276 0.919731
v 0.192336 0.786829 1.114697
v 0.381741 0.774552 -1.191589
v 0.196421 0.786829 -1.346454
v 0.523434 0.762276 -1.133286
v 0.572289 -0.857892 -0.880350
v 0.572289 -0.857892 0.675469
v 1.007383 -1.288678 0.314976
v 1.007383 -1.288678 -0.511694
v 1.007383 -1.319631 -0.098359
v 0.853638 -1.123631 -0.677656
v 0.853638 -1.123631 0.475676
v 1.007383 -1.304155 0.108309
v 1.007383 -1.304155 -0.305027
v 0.674337 -0.652429 -0.917760
v 0.674337 -0.652429 0.697979
v 1.044027 -0.850187 0.342352
v 1.044027 -0.850187 -0.537929
v 1.060837 -0.881140 -0.097788
v 0.911832 -0.780010 -0.733608
v 0.911832 -0.780010 0.532512
v 1.077039 -0.865664 0.122282
v 1.077039 -0.865664 -0.317859
v 0.702835 -0.271369 -1.018798
v 0.671782 -0.271369 0.810513
v 0.943886 -0.311857 0.429657
v 0.943886 -0.311857 -0.603210
v 0.944493 -0.327333 -0.086777
v 0.856062 -0.280928 -0.947065
v 0.855332 -0.280928 0.666350
v 0.976898 -0.319595 0.171440
v 0.976898 -0.319595 -0.344994
v -0.196167 0.078623 0.813242
v 0.122514 0.345101 -1.328335
v -0.228459 0.076587 -1.048705
v -0.375187 0.082023 0.467642
v -0.375187 0.082023 -0.658119
v -0.390293 0.079033 -0.095239
v -0.310392 0.086852 -0.882863
v -0.310392 0.086852 0.685010
v -0.382073 0.079033 0.186201
v -0.382073 0.079033 -0.376679
v 0.131876 0.348459 1.071940
v -0.049891 0.244163 -1.234522
v -0.051261 0.241090 1.025844
v -0.122692 0.175012 0.971830
v 0.032914 0.291108 1.048951
v -0.145217 0.173049 -1.183820
v 0.028918 0.301514 -1.281429
vn 0.9936 0.1093 -0.0287
vn 0.9981 0.0550 -0.0292
vn 0.9685 0.0389 0.2460
vn 0.9588 0.0745 0.2740
vn -0.1774 0.0161 0.9840
vn -0.1705 0.0165 0.9852
vn -0.3277 0.0667 0.9424
vn -0.3004 0.0295 0.9534
vn -0.7402 -0.6427 0.1976
vn -0.3662 -0.9133 0.1780
vn -0.2789 -0.7926 0.5422
vn -0.6287 -0.5529 0.5468
vn -0.1225 -0.9772 0.1733
vn 0.0748 -0.9856 0.1516
vn 0.0953 -0.8472 0.5226
vn -0.1326 -0.8430 0.5213
vn 0.7699 -0.0335 0.6372
vn 0.7684 0.0970 0.6326
vn 0.7267 0.0541 0.6848
vn 0.6135 -0.0440 0.7885
vn -0.7249 -0.0729 -0.6850
vn -0.8284 -0.1572 -0.5376
vn -0.7538 -0.2768 -0.5960
vn -0.6356 -0.2544 -0.7289
vn 0.8800 -0.4737 0.0355
vn 0.9844 -0.1750 0.0208
vn 0.9003 -0.1939 0.3897
vn 0.7733 -0.4475 0.4492
vn 0.5982 -0.0684 -0.7984
vn 0.6632 -0.1806 -0.7264
vn 0.7584 -0.0723 -0.6477
vn 0.7545 0.0019 -0.6563
vn -0.1717 -0.5748 0.8001
vn 0.1223 -0.4671 0.8757
vn 0.0248 -0.3090 0.9507
vn -0.2016 -0.3699 0.9069
vn -0.3482 -0.3199 0.8811
vn -0.2093 -0.4736 0.8555
vn -0.1814 -0.2658 0.9468
vn -0.2166 -0.2297 0.9488
vn 0.7731 0.0168 0.6341
vn 0.7895 -0.0457 0.6120
vn 0.6266 -0.0819 0.7751
vn 0.6279 0.0024 0.7783
vn 0.4013 -0.3465 0.8479
vn 0.5972 -0.2031 0.7760
vn 0.4205 -0.2502 0.8721
vn 0.2837 -0.3571 0.8899
vn -0.6898 -0.0797 0.7196
vn -0.7526 -0.1714 0.6358
vn -0.9521 0.1350 0.2743
vn -0.8867 0.1663 0.4313
vn 0.9872 0.1561 -0.0321
vn 0.9942 0.1018 -0.0349
vn 0.9556 0.1101 0.2733
vn 0.9625 0.0921 0.2551
vn 0.7397 -0.0172 -0.6728
vn 0.8414 0.0995 -0.5312
vn 0.9708 0.1256 -0.2043
vn 0.9741 0.1256 -0.1878
vn -0.2136 -0.4943 -0.8426
vn -0.1591 -0.5814 -0.7979
vn -0.1329 -0.8485 -0.5122
vn -0.2793 -0.7981 -0.5340
vn 0.4087 -0.3518 -0.8421
vn 0.6063 -0.2080 -0.7676
vn 0.9030 -0.1939 -0.3834
vn 0.7759 -0.4495 -0.4426
vn -0.9406 0.3160 -0.1243
vn -0.9565 0.2869 -0.0537
vn -0.9539 0.1402 -0.2652
vn -0.8910 0.1689 -0.4214
vn 0.0938 -0.4830 -0.8706
vn 0.0841 -0.8550 -0.5118
vn -0.3679 -0.3289 -0.8698
vn -0.6313 -0.5551 -0.5416
vn 0.8574 0.0168 -0.5144
vn 0.8664 -0.0382 -0.4980
vn 0.9713 0.0429 -0.2340
vn 0.9622 0.0743 -0.2620
vn -0.9407 0.3158 0.1243
vn -0.9566 0.2865 0.0538
vn -0.9490 0.3153 0.0001
vn -0.9385 0.3451 -0.0001
vn 0.9877 0.1526 0.0336
vn 0.9939 0.1024 0.0406
vn 0.9948 0.1016 -0.0042
vn 0.9864 0.1642 -0.0007
vn -0.3659 -0.9136 -0.1772
vn -0.1226 -0.9773 -0.1730
vn -0.1293 -0.9916 -0.0000
vn -0.3830 -0.9238 -0.0000
vn 0.8800 -0.4737 -0.0355
vn 0.9844 -0.1749 -0.0209
vn 0.9819 -0.1895 -0.0000
vn 0.8783 -0.4782 -0.0000
vn 0.0748 -0.9857 -0.1511
vn 0.0958 -0.9954 0.0001
vn -0.7404 -0.6428 -0.1965
vn -0.7772 -0.6293 -0.0000
vn 0.9936 0.1093 0.0287
vn 0.9981 0.0550 0.0292
vn 0.9997 0.0246 -0.0000
vn 0.9941 0.1082 -0.0000
vn 0.9915 0.1298 0.0067
vn 0.9828 0.1823 0.0293
vn 0.9800 0.1991 0.0019
vn 0.9902 0.1395 0.0001
vn 0.7130 -0.1165 -0.6914
vn 0.7101 -0.1502 -0.6879
vn 0.9647 0.1033 -0.2423
vn 0.9431 0.0588 -0.3271
vn 0.9915 0.1299 -0.0068
vn 0.9825 0.1835 -0.0325
vn 0.9505 0.1095 0.2906
vn 0.9354 0.0687 0.3469
vn 0.6926 -0.0597 0.7189
vn 0.7619 -0.0598 0.6450
vn 0.5600 -0.2027 0.8033
vn 0.5291 -0.1340 0.8379
vn -0.9648 -0.1770 0.1943
vn -0.9799 0.0888 0.1789
vn -0.9950 0.1003 -0.0000
vn -0.9848 -0.1737 -0.0000
vn -0.9650 -0.1766 -0.1938
vn -0.9799 0.0889 -0.1789
vn -0.8643 0.0539 -0.5001
vn -0.8232 -0.1630 -0.5439
vn -0.4979 -0.1047 0.8609
vn -0.5795 -0.0338 0.8143
vn -0.8580 0.0527 0.5109
vn -0.8158 -0.1650 0.5543
vn -0.5176 -0.1057 -0.8491
vn -0.6016 -0.0313 -0.7982
vn -0.5737 -0.0629 -0.8166
vn -0.3956 -0.1278 -0.9095
vn 0.4261 -0.2701 -0.8634
vn 0.3367 -0.3039 -0.8912
vn -0.2426 -0.2420 -0.9395
vn -0.2001 -0.2919 -0.9353
vn -0.1730 -0.3673 -0.9139
vn 0.0034 -0.3051 -0.9523
vn 0.2877 -0.3604 -0.8873
vn 0.4265 -0.2671 -0.8641
vn 0.4548 -0.0755 -0.8874
vn 0.7404 0.0102 -0.6721
vn -0.3741 -0.1259 0.9188
vn -0.5499 -0.0648 0.8327
vn -0.5504 -0.2545 0.7952
vn -0.6190 -0.2984 0.7265
vn 0.5166 -0.7378 -0.4345
vn 0.5533 -0.8285 -0.0865
vn 0.5576 -0.8301 -0.0001
vn 0.5544 -0.8279 0.0853
vn 0.5192 -0.7340 0.4378
vn 0.3532 -0.4036 0.8440
vn 0.2548 -0.2705 -0.9284
vn 0.3365 -0.4248 -0.8404
vn 0.3073 -0.2361 0.9219
vn -0.9966 0.0820 -0.0000
vn -1.0000 -0.0023 -0.0000
vn -0.9998 -0.0043 -0.0198
vn -0.9966 0.0790 -0.0230
vn -0.9909 0.0518 0.1245
vn -0.9936 -0.0068 0.1125
vn -0.9998 -0.0043 0.0198
vn -0.9966 0.0790 0.0230
vn -0.7916 -0.1131 0.6005
vn -0.7891 -0.0000 0.6142
vn -0.9348 -0.0053 0.3551
vn -0.9214 -0.0394 0.3865
vn -0.9913 0.0521 -0.1211
vn -0.9940 -0.0069 -0.1096
vn -0.9701 -0.0052 -0.2426
vn -0.9635 -0.0252 -0.2665
vn -0.6959 -0.0390 0.7171
vn -0.6776 -0.0000 0.7354
vn -0.7859 -0.0000 -0.6184
vn -0.7908 -0.1124 -0.6016
vn -0.4990 0.0264 -0.8662
vn -0.4934 -0.0000 -0.8698
vn -0.4915 0.0164 -0.8707
vn -0.9996 -0.0266 -0.0000
vn -0.9994 -0.0301 -0.0161
vn -0.9920 -0.0274 0.1231
vn -0.9994 -0.0301 0.0161
vn -0.9292 -0.0089 0.3696
vn -0.9924 -0.0274 -0.1198
vn -0.9663 -0.0088 -0.2573
vn -0.5155 0.0583 -0.8549
vn -0.4880 0.0452 -0.8717
vn -0.8708 -0.1006 0.4812
vn -0.9858 0.0607 0.1568
vn -0.9299 -0.0727 -0.3605
vn -0.7838 -0.2583 -0.5648
vn -0.7345 -0.1415 0.6637
vn -0.7551 -0.2586 0.6024
vn -0.9949 0.0972 -0.0262
vn -0.9864 0.0613 -0.1522
vn -0.9949 0.0972 0.0262
vn -0.9949 0.1004 -0.0000
vn -0.6051 -0.1428 -0.7832
vn -0.5444 -0.0314 -0.8382
vn -0.5209 0.0354 -0.8529
vn -0.5305 0.0725 -0.8446
vn -0.5069 -0.0000 -0.8620
vn -0.5067 -0.0000 -0.8621
vn -0.2997 0.0702 0.9514
vn -0.2831 0.0292 0.9586
vn -0.5072 0.0318 0.8612
vn -0.5272 0.0561 0.8479
vn -0.2776 -0.0000 0.9607
vn -0.2779 -0.0003 0.9606
vn -0.4858 -0.0000 0.8740
vn -0.2755 0.0157 0.9612
vn -0.2766 -0.0000 0.9610
vn -0.2771 -0.0006 0.9608
vn -0.2734 0.0437 0.9609
vn -0.5060 -0.0000 -0.8625
vn -0.7996 -0.0000 -0.6006
vn -0.5070 -0.0000 -0.8620
vn -0.2775 -0.0012 0.9607
vn -0.2781 -0.0006 0.9606
vn -0.4747 -0.0000 0.8802
vn -0.9999 0.0148 -0.0000
vn -0.9998 0.0110 -0.0136
vn -0.9904 0.0035 0.1383
vn -0.9998 0.0110 0.0136
vn -0.7948 -0.0000 0.6069
vn -0.9253 -0.0000 0.3793
vn -0.9909 0.0035 -0.1344
vn -0.9642 -0.0000 -0.2650
vn 0.7348 -0.0001 0.6783
vn 0.7184 -0.0943 0.6892
vn 0.4878 -0.0788 0.8694
vn 0.4457 -0.0008 0.8952
vn 0.1815 -0.0699 -0.9809
vn 0.1328 -0.1827 -0.9742
vn 0.4869 -0.3370 -0.8058
vn 0.5461 -0.1351 -0.8267
vn -0.1137 0.0086 -0.9935
vn -0.1230 0.0316 -0.9919
vn 0.3111 0.1989 -0.9293
vn 0.4740 0.2330 -0.8492
vn 0.5829 0.2526 -0.7723
vn 0.5966 0.1810 -0.7819
vn -0.1120 0.0010 -0.9937
vn -0.1048 -0.0068 -0.9945
vn 0.2414 0.0970 -0.9656
vn 0.0562 0.0926 -0.9941
vn 0.2856 0.0646 0.9562
vn 0.4363 0.0985 0.8944
vn -0.1486 0.0078 0.9889
vn -0.1641 -0.0043 0.9864
vn 0.7677 0.0578 0.6382
vn 0.6984 0.0884 0.7102
vn 0.7455 0.1417 0.6513
vn 0.6894 0.0917 0.7186
vn 0.9550 0.0640 -0.2895
vn 0.9519 0.0517 -0.3021
vn 0.9966 0.0811 0.0132
vn 0.9996 0.0221 0.0156
vn 1.0000 0.0007 0.0027
vn 0.9952 0.0974 -0.0000
vn 0.9966 0.0811 -0.0132
vn 0.9997 0.0176 -0.0193
vn 0.9497 0.0598 0.3073
vn 0.9485 0.0537 0.3122
vn 0.7688 0.0403 0.6382
vn 0.7603 0.0479 0.6478
vn 0.8243 0.0755 -0.5611
vn 0.8106 0.1502 -0.5660
vn 0.8726 0.0639 -0.4842
vn 0.8867 0.0654 -0.4578
vn -0.2763 -0.0014 0.9611
vn -0.2996 -0.0080 0.9540
vn -0.1638 -0.0065 0.9865
vn -0.3352 -0.0202 0.9419
vn 0.6601 -0.1088 -0.7432
vn 0.7336 0.0002 0.6796
vn 0.1792 -0.0126 0.9837
vn -0.0673 0.0031 -0.9977
vn 0.2116 -0.0221 -0.9771
vn -0.1236 0.0025 -0.9923
vt 0.034169 0.171121
vt 0.316019 0.292403
vt 0.455336 0.171869
vt 0.308514 0.404358
vt 0.316993 0.708414
vt 0.115244 0.713369
vt 0.454190 0.287969
vt 0.034518 0.287492
vt 0.379096 0.713302
vt 0.124456 0.590852
vt 0.112640 0.171018
vt 0.122167 0.401385
vt 0.118688 0.497369
vt 0.120357 0.541018
vt 0.118486 0.453247
vt 0.368833 0.589555
vt 0.379335 0.171541
vt 0.373604 0.496351
vt 0.372502 0.539842
vt 0.373213 0.452195
vt 0.369121 0.400374
vt 0.112989 0.287389
vt 0.378189 0.287640
vt 0.308292 0.585944
vt 0.317021 0.169695
vt 0.311211 0.497184
vt 0.309182 0.539566
vt 0.309484 0.453543
vt 0.176824 0.169353
vt 0.185412 0.540479
vt 0.177165 0.292198
vt 0.178702 0.708394
vt 0.184713 0.405409
vt 0.186350 0.587189
vt 0.182777 0.497760
vt 0.183788 0.454334
vt 0.247032 0.169435
vt 0.247107 0.539630
vt 0.246579 0.291841
vt 0.247448 0.586918
vt 0.246969 0.497319
vt 0.246848 0.454180
vt 0.247892 0.708885
vt 0.246567 0.404493
vt 0.116322 0.346083
vt 0.374747 0.345808
vt 0.313327 0.352247
vt 0.180060 0.352447
vt 0.246431 0.351422
vt 0.119057 0.655297
vt 0.374963 0.654713
vt 0.313503 0.648180
vt 0.181504 0.648629
vt 0.247852 0.649291
vt 0.146973 0.710881
vt 0.153440 0.403397
vt 0.144732 0.170186
vt 0.152884 0.540748
vt 0.145077 0.289793
vt 0.155403 0.589020
vt 0.150733 0.497564
vt 0.151137 0.453790
vt 0.148191 0.349265
vt 0.150280 0.651963
vt 0.338818 0.402366
vt 0.347104 0.290022
vt 0.348045 0.710858
vt 0.338562 0.587749
vt 0.348178 0.170618
vt 0.342407 0.496768
vt 0.340842 0.539704
vt 0.341348 0.452869
vt 0.344037 0.349027
vt 0.344233 0.651446
vt 0.282027 0.169565
vt 0.278144 0.539598
vt 0.281299 0.292122
vt 0.277870 0.586431
vt 0.279090 0.497252
vt 0.278166 0.453861
vt 0.282443 0.708649
vt 0.277541 0.404425
vt 0.279879 0.351835
vt 0.280678 0.648735
vt 0.213297 0.708639
vt 0.215640 0.404951
vt 0.211928 0.169394
vt 0.216260 0.540054
vt 0.211872 0.292019
vt 0.216899 0.587054
vt 0.214873 0.497539
vt 0.215318 0.454257
vt 0.213246 0.351935
vt 0.214678 0.648960
vt 0.120338 0.427146
vt 0.371154 0.426114
vt 0.308996 0.428789
vt 0.184253 0.429711
vt 0.246707 0.429173
vt 0.152296 0.428428
vt 0.340075 0.427452
vt 0.277851 0.428981
vt 0.215480 0.429442
vt 0.379364 0.771125
vt 0.455068 0.770972
vt 0.037120 0.770916
vt 0.114957 0.771085
vt 0.317286 0.769529
vt 0.178505 0.769450
vt 0.247844 0.769766
vt 0.146731 0.770268
vt 0.348325 0.770327
vt 0.282565 0.769648
vt 0.213175 0.769608
vt 0.455202 0.799884
vt 0.379498 0.800037
vt 0.036977 0.799774
vt 0.114814 0.799943
vt 0.317432 0.800087
vt 0.178407 0.799979
vt 0.247820 0.800206
vt 0.146611 0.799961
vt 0.348465 0.800062
vt 0.282626 0.800147
vt 0.213113 0.800093
vt 0.379230 0.742214
vt 0.037263 0.742058
vt 0.115101 0.742227
vt 0.317140 0.738971
vt 0.178604 0.738922
vt 0.247868 0.739326
vt 0.146852 0.740574
vt 0.348185 0.740592
vt 0.282504 0.739149
vt 0.213236 0.739124
vt 0.454935 0.742060
vt 0.117150 0.684333
vt 0.377030 0.684007
vt 0.315248 0.678297
vt 0.180103 0.678511
vt 0.247872 0.679088
vt 0.148627 0.681422
vt 0.346139 0.681152
vt 0.281560 0.678692
vt 0.213987 0.678800
vt 0.076039 0.771000
vt 0.075895 0.799859
vt 0.076182 0.742142
vt 0.417216 0.771049
vt 0.417350 0.799960
vt 0.417082 0.742137
vt 0.398290 0.771087
vt 0.398424 0.799999
vt 0.398156 0.742175
vt 0.436142 0.771010
vt 0.436276 0.799922
vt 0.436009 0.742099
vt 0.095498 0.771043
vt 0.095355 0.799901
vt 0.095641 0.742184
vt 0.056579 0.770958
vt 0.056436 0.799816
vt 0.056723 0.742100
vt 0.121756 0.623074
vt 0.371898 0.622134
vt 0.310897 0.617062
vt 0.183927 0.617909
vt 0.247650 0.618105
vt 0.152842 0.620492
vt 0.341398 0.619598
vt 0.279274 0.617583
vt 0.215789 0.618007
vt 0.455269 0.814340
vt 0.379565 0.814493
vt 0.036905 0.814203
vt 0.114742 0.814372
vt 0.317505 0.815366
vt 0.178358 0.815243
vt 0.247808 0.815426
vt 0.146550 0.814808
vt 0.348535 0.814929
vt 0.282656 0.815396
vt 0.213083 0.815335
vt 0.075824 0.814288
vt 0.417417 0.814416
vt 0.398491 0.814454
vt 0.436343 0.814378
vt 0.095283 0.814330
vt 0.056364 0.814245
vt 0.417336 0.171705
vt 0.416189 0.287804
vt 0.398336 0.171623
vt 0.397189 0.287722
vt 0.436336 0.171787
vt 0.435190 0.287887
vt 0.073753 0.287440
vt 0.073404 0.171069
vt 0.054136 0.287466
vt 0.053787 0.171095
vt 0.093371 0.287415
vt 0.093022 0.171044
vt 0.454763 0.229919
vt 0.378762 0.229591
vt 0.112814 0.229203
vt 0.034344 0.229306
vt 0.316520 0.231049
vt 0.176994 0.230775
vt 0.246805 0.230638
vt 0.144904 0.229989
vt 0.347641 0.230320
vt 0.281663 0.230844
vt 0.211900 0.230707
vt 0.416763 0.229755
vt 0.397763 0.229673
vt 0.435763 0.229837
vt 0.073579 0.229255
vt 0.053961 0.229281
vt 0.093196 0.229229
vt 0.454476 0.258944
vt 0.378476 0.258616
vt 0.112901 0.258296
vt 0.034431 0.258399
vt 0.316270 0.261726
vt 0.177079 0.261486
vt 0.246692 0.261240
vt 0.144990 0.259891
vt 0.347373 0.260171
vt 0.281481 0.261483
vt 0.211886 0.261363
vt 0.416476 0.258780
vt 0.397476 0.258698
vt 0.435476 0.258862
vt 0.073666 0.258348
vt 0.054049 0.258373
vt 0.093284 0.258322
vt 0.455050 0.200894
vt 0.379049 0.200566
vt 0.112727 0.200111
vt 0.034256 0.200214
vt 0.316771 0.200372
vt 0.176909 0.200064
vt 0.246919 0.200036
vt 0.144818 0.200087
vt 0.347910 0.200469
vt 0.281845 0.200204
vt 0.211914 0.200050
vt 0.417049 0.200730
vt 0.398049 0.200648
vt 0.436049 0.200812
vt 0.073492 0.200162
vt 0.053874 0.200188
vt 0.093109 0.200136
vt 0.121253 0.414266
vt 0.370138 0.413244
vt 0.308755 0.416573
vt 0.184483 0.417560
vt 0.246637 0.416833
vt 0.152868 0.415913
vt 0.339446 0.414909
vt 0.277696 0.416703
vt 0.215560 0.417197
vt 0.119245 0.373734
vt 0.371934 0.373091
vt 0.310921 0.378303
vt 0.182386 0.378928
vt 0.246499 0.377958
vt 0.150815 0.376331
vt 0.341427 0.375697
vt 0.278710 0.378130
vt 0.214443 0.378443
vt 0.114655 0.316736
vt 0.376468 0.316724
vt 0.314673 0.322325
vt 0.178612 0.322322
vt 0.246505 0.321632
vt 0.146634 0.319529
vt 0.345571 0.319525
vt 0.280589 0.321978
vt 0.212559 0.321977
vt 0.379163 0.727758
vt 0.037335 0.727629
vt 0.115172 0.727798
vt 0.317066 0.723692
vt 0.178653 0.723658
vt 0.247880 0.724105
vt 0.146913 0.725728
vt 0.348115 0.725725
vt 0.282473 0.723899
vt 0.213266 0.723882
vt 0.454868 0.727604
vt 0.076254 0.727713
vt 0.417016 0.727681
vt 0.398089 0.727719
vt 0.435942 0.727643
vt 0.095713 0.727755
vt 0.056794 0.727671
s 1
usemtl Material
f 245/245/1 75/75/2 25/25/3 240/240/4
f 249/249/5 194/194/6 3/3/7 236/236/8
f 78/78/9 76/76/10 27/27/11 24/24/12
f 79/79/13 80/80/14 28/28/15 26/26/16
f 277/277/17 66/66/18 23/23/19 272/272/20
f 142/142/21 55/55/22 6/6/23 137/137/24
f 260/260/25 82/82/26 4/4/27 255/255/28
f 252/252/29 201/201/30 11/11/31 238/238/32
f 76/76/10 79/79/13 26/26/16 27/27/11
f 70/70/33 72/72/34 20/20/35 18/18/36
f 68/68/37 71/71/38 19/19/39 16/16/40
f 71/71/38 70/70/33 18/18/36 19/19/39
f 244/244/41 69/69/42 17/17/43 237/237/44
f 259/259/45 65/65/46 21/21/47 254/254/48
f 143/143/49 67/67/50 5/5/51 139/139/52
f 278/278/53 77/77/54 2/2/55 273/273/56
f 276/276/57 59/59/58 31/31/59 274/274/60
f 58/58/61 61/61/62 35/35/63 30/30/64
f 258/258/65 56/56/66 33/33/67 256/256/68
f 145/145/69 85/85/70 32/32/71 140/140/72
f 61/61/62 62/62/73 36/36/74 35/35/63
f 60/60/75 58/58/61 30/30/64 34/34/76
f 243/243/77 57/57/78 29/29/79 241/241/80
f 144/144/81 81/81/82 43/43/83 141/141/84
f 279/279/85 89/89/86 39/39/87 275/275/88
f 88/88/89 91/91/90 41/41/91 38/38/92
f 261/261/93 86/86/94 44/44/95 257/257/96
f 91/91/90 92/92/97 42/42/98 41/41/91
f 90/90/99 88/88/89 38/38/92 40/40/100
f 246/246/101 87/87/102 37/37/103 242/242/104
f 270/270/105 93/93/106 49/49/107 266/266/108
f 267/267/109 63/63/110 48/48/111 265/265/112
f 269/269/113 83/83/114 47/47/115 264/264/116
f 268/268/117 73/73/118 46/46/119 263/263/120
f 171/171/121 84/84/122 54/54/123 168/168/124
f 172/172/125 94/94/126 53/53/127 167/167/128
f 170/170/129 74/74/130 52/52/131 166/166/132
f 169/169/133 64/64/134 50/50/135 164/164/136
f 167/167/128 53/53/127 64/64/134 169/169/133
f 262/262/137 45/45/138 63/63/110 267/267/109
f 238/238/32 11/11/31 57/57/78 243/243/77
f 10/10/139 14/14/140 58/58/61 60/60/75
f 13/13/141 15/15/142 62/62/73 61/61/62
f 253/253/143 12/12/144 56/56/66 258/258/65
f 14/14/140 13/13/141 61/61/62 58/58/61
f 271/271/145 22/22/146 59/59/58 276/276/57
f 140/140/72 32/32/71 55/55/22 142/142/21
f 165/165/147 51/51/148 74/74/130 170/170/129
f 264/264/116 47/47/115 73/73/118 268/268/117
f 138/138/149 9/9/150 67/67/50 143/143/49
f 255/255/28 4/4/27 65/65/46 259/259/45
f 240/240/4 25/25/3 69/69/42 244/244/41
f 27/27/11 26/26/16 70/70/33 71/71/38
f 24/24/12 27/27/11 71/71/38 68/68/37
f 26/26/16 28/28/15 72/72/34 70/70/33
f 273/273/56 2/2/55 66/66/18 277/277/17
f 166/166/132 52/52/131 84/84/122 171/171/121
f 266/266/108 49/49/107 83/83/114 269/269/113
f 139/139/52 5/5/51 81/81/82 144/144/81
f 275/275/88 39/39/87 77/77/54 278/278/53
f 38/38/92 41/41/91 79/79/13 76/76/10
f 257/257/96 44/44/95 82/82/26 260/260/25
f 41/41/91 42/42/98 80/80/14 79/79/13
f 40/40/100 38/38/92 76/76/10 78/78/9
f 242/242/104 37/37/103 75/75/2 245/245/1
f 168/168/124 54/54/123 94/94/126 172/172/125
f 265/265/112 48/48/111 93/93/106 270/270/105
f 241/241/80 29/29/79 87/87/102 246/246/101
f 34/34/76 30/30/64 88/88/89 90/90/99
f 35/35/63 36/36/74 92/92/97 91/91/90
f 256/256/68 33/33/67 86/86/94 261/261/93
f 30/30/64 35/35/63 91/91/90 88/88/89
f 274/274/60 31/31/59 89/89/86 279/279/85
f 141/141/84 43/43/83 85/85/70 145/145/69
f 36/36/74 98/98/151 103/103/152 92/92/97
f 42/42/98 99/99/153 102/102/154 80/80/14
f 28/28/15 97/97/155 101/101/156 72/72/34
f 15/15/142 95/95/157 100/100/158 62/62/73
f 92/92/97 103/103/152 99/99/153 42/42/98
f 62/62/73 100/100/158 98/98/151 36/36/74
f 72/72/34 101/101/156 96/96/159 20/20/35
f 80/80/14 102/102/154 97/97/155 28/28/15
f 131/131/160 110/110/161 114/114/162 135/135/163
f 129/129/164 108/108/165 113/113/166 134/134/167
f 126/126/168 104/104/169 112/112/170 133/133/171
f 130/130/172 109/109/173 111/111/174 132/132/175
f 134/134/167 113/113/166 110/110/161 131/131/160
f 135/135/163 114/114/162 109/109/173 130/130/172
f 154/154/176 152/152/177 104/104/169 126/126/168
f 132/132/175 111/111/174 107/107/178 128/128/179
f 133/133/171 112/112/170 108/108/165 129/129/164
f 163/163/180 161/161/181 106/106/181 127/127/182
f 110/110/161 121/121/183 125/125/184 114/114/162
f 108/108/165 119/119/185 124/124/186 113/113/166
f 104/104/169 116/116/169 123/123/187 112/112/170
f 109/109/173 120/120/188 122/122/189 111/111/174
f 113/113/166 124/124/186 121/121/183 110/110/161
f 114/114/162 125/125/184 120/120/188 109/109/173
f 152/152/177 153/153/177 116/116/169 104/104/169
f 111/111/174 122/122/189 118/118/178 107/107/178
f 112/112/170 123/123/187 119/119/185 108/108/165
f 161/161/181 162/162/181 117/117/181 106/106/181
f 296/296/190 163/163/180 127/127/182 281/281/191
f 287/287/192 133/133/171 129/129/164 283/283/193
f 286/286/194 132/132/175 128/128/179 282/282/195
f 293/293/196 154/154/176 126/126/168 280/280/197
f 289/289/198 135/135/163 130/130/172 284/284/199
f 288/288/200 134/134/167 131/131/160 285/285/201
f 284/284/199 130/130/172 132/132/175 286/286/194
f 280/280/197 126/126/168 133/133/171 287/287/192
f 283/283/193 129/129/164 134/134/167 288/288/200
f 285/285/201 131/131/160 135/135/163 289/289/198
f 54/54/123 141/141/84 145/145/69 94/94/126
f 52/52/131 139/139/52 144/144/81 84/84/122
f 51/51/148 138/138/149 143/143/49 74/74/130
f 53/53/127 140/140/72 142/142/21 64/64/134
f 84/84/122 144/144/81 141/141/84 54/54/123
f 94/94/126 145/145/69 140/140/72 53/53/127
f 74/74/130 143/143/49 139/139/52 52/52/131
f 64/64/134 142/142/21 137/137/24 50/50/135
f 295/295/202 160/160/203 148/148/204 291/291/205
f 158/158/206 159/159/206 147/147/207 146/146/207
f 160/160/203 158/158/206 146/146/207 148/148/204
f 294/294/208 157/157/209 151/151/210 292/292/211
f 155/155/212 156/156/213 150/150/214 149/149/214
f 157/157/209 155/155/212 149/149/214 151/151/210
f 292/292/211 151/151/210 154/154/176 293/293/196
f 149/149/214 150/150/214 153/153/177 152/152/177
f 151/151/210 149/149/214 152/152/177 154/154/176
f 136/136/215 105/105/216 155/155/212 157/157/209
f 105/105/216 115/115/217 156/156/213 155/155/212
f 290/290/218 136/136/215 157/157/209 294/294/208
f 128/128/179 107/107/178 158/158/206 160/160/203
f 107/107/178 118/118/178 159/159/206 158/158/206
f 282/282/195 128/128/179 160/160/203 295/295/202
f 291/291/205 148/148/204 163/163/180 296/296/190
f 146/146/207 147/147/207 162/162/181 161/161/181
f 148/148/204 146/146/207 161/161/181 163/163/180
f 40/40/100 168/168/124 172/172/125 90/90/99
f 24/24/12 166/166/132 171/171/121 78/78/9
f 16/16/40 165/165/147 170/170/129 68/68/37
f 34/34/76 167/167/128 169/169/133 60/60/75
f 60/60/75 169/169/133 164/164/136 10/10/139
f 68/68/37 170/170/129 166/166/132 24/24/12
f 90/90/99 172/172/125 167/167/128 34/34/76
f 78/78/9 171/171/121 168/168/124 40/40/100
f 147/147/207 184/184/219 189/189/181 162/162/181
f 118/118/178 176/176/220 188/188/221 159/159/206
f 115/115/217 173/173/222 187/187/223 156/156/213
f 150/150/214 185/185/224 186/186/177 153/153/177
f 156/156/213 187/187/223 185/185/224 150/150/214
f 159/159/206 188/188/221 184/184/219 147/147/207
f 121/121/183 179/179/225 183/183/226 125/125/184
f 119/119/185 177/177/227 182/182/228 124/124/186
f 116/116/169 174/174/229 181/181/230 123/123/187
f 120/120/188 178/178/231 180/180/232 122/122/189
f 124/124/186 182/182/228 179/179/225 121/121/183
f 125/125/184 183/183/226 178/178/231 120/120/188
f 153/153/177 186/186/177 174/174/229 116/116/169
f 122/122/189 180/180/232 176/176/220 118/118/178
f 123/123/187 181/181/230 177/177/227 119/119/185
f 162/162/181 189/189/181 175/175/181 117/117/181
f 248/248/233 192/192/234 190/190/235 247/247/236
f 237/237/44 17/17/43 192/192/234 248/248/233
f 247/247/236 190/190/235 194/194/6 249/249/5
f 251/251/237 199/199/238 197/197/239 250/250/240
f 239/239/241 1/1/242 199/199/238 251/251/237
f 250/250/240 197/197/239 201/201/30 252/252/29
f 233/233/243 216/216/244 218/218/245 235/235/246
f 222/222/247 205/205/248 217/217/249 234/234/250
f 234/234/250 217/217/249 216/216/244 233/233/243
f 230/230/251 213/213/252 215/215/253 232/232/254
f 220/220/255 203/203/256 214/214/257 231/231/258
f 231/231/258 214/214/257 213/213/252 230/230/251
f 224/224/259 207/207/260 212/212/261 229/229/262
f 225/225/263 208/208/264 211/211/265 228/228/266
f 223/223/267 206/206/268 210/210/269 227/227/270
f 221/221/271 204/204/272 209/209/273 226/226/274
f 229/229/262 212/212/261 208/208/264 225/225/263
f 226/226/274 209/209/273 207/207/260 224/224/259
f 227/227/270 210/210/269 203/203/256 220/220/255
f 235/235/246 218/218/245 204/204/272 221/221/271
f 232/232/254 215/215/253 202/202/275 219/219/276
f 228/228/266 211/211/265 206/206/268 223/223/267
f 77/77/54 228/228/266 223/223/267 2/2/55
f 195/195/277 232/232/254 219/219/276 7/7/278
f 200/200/279 235/235/246 221/221/271 22/22/146
f 66/66/18 227/227/270 220/220/255 23/23/19
f 59/59/58 226/226/274 224/224/259 31/31/59
f 89/89/86 229/229/262 225/225/263 39/39/87
f 22/22/146 221/221/271 226/226/274 59/59/58
f 2/2/55 223/223/267 227/227/270 66/66/18
f 39/39/87 225/225/263 228/228/266 77/77/54
f 31/31/59 224/224/259 229/229/262 89/89/86
f 193/193/280 231/231/258 230/230/251 191/191/281
f 23/23/19 220/220/255 231/231/258 193/193/280
f 191/191/281 230/230/251 232/232/254 195/195/277
f 198/198/282 234/234/250 233/233/243 196/196/283
f 8/8/284 222/222/247 234/234/250 198/198/282
f 196/196/283 233/233/243 235/235/246 200/200/279
f 216/216/244 250/250/240 252/252/29 218/218/245
f 205/205/248 239/239/241 251/251/237 217/217/249
f 217/217/249 251/251/237 250/250/240 216/216/244
f 213/213/252 247/247/236 249/249/5 215/215/253
f 203/203/256 237/237/44 248/248/233 214/214/257
f 214/214/257 248/248/233 247/247/236 213/213/252
f 207/207/260 241/241/80 246/246/101 212/212/261
f 208/208/264 242/242/104 245/245/1 211/211/265
f 206/206/268 240/240/4 244/244/41 210/210/269
f 204/204/272 238/238/32 243/243/77 209/209/273
f 212/212/261 246/246/101 242/242/104 208/208/264
f 209/209/273 243/243/77 241/241/80 207/207/260
f 210/210/269 244/244/41 237/237/44 203/203/256
f 218/218/245 252/252/29 238/238/32 204/204/272
f 215/215/253 249/249/5 236/236/8 202/202/275
f 211/211/265 245/245/1 240/240/4 206/206/268
f 98/98/151 256/256/68 261/261/93 103/103/152
f 99/99/153 257/257/96 260/260/25 102/102/154
f 97/97/155 255/255/28 259/259/45 101/101/156
f 95/95/157 253/253/143 258/258/65 100/100/158
f 103/103/152 261/261/93 257/257/96 99/99/153
f 100/100/158 258/258/65 256/256/68 98/98/151
f 101/101/156 259/259/45 254/254/48 96/96/159
f 102/102/154 260/260/25 255/255/28 97/97/155
f 33/33/67 265/265/112 270/270/105 86/86/94
f 44/44/95 266/266/108 269/269/113 82/82/26
f 4/4/27 264/264/116 268/268/117 65/65/46
f 12/12/144 262/262/137 267/267/109 56/56/66
f 65/65/46 268/268/117 263/263/120 21/21/47
f 82/82/26 269/269/113 264/264/116 4/4/27
f 56/56/66 267/267/109 265/265/112 33/33/67
f 86/86/94 270/270/105 266/266/108 44/44/95
f 48/48/111 274/274/60 279/279/85 93/93/106
f 49/49/107 275/275/88 278/278/53 83/83/114
f 47/47/115 273/273/56 277/277/17 73/73/118
f 45/45/138 271/271/145 276/276/57 63/63/110
f 93/93/106 279/279/85 275/275/88 49/49/107
f 63/63/110 276/276/57 274/274/60 48/48/111
f 83/83/114 278/278/53 273/273/56 47/47/115
f 73/73/118 277/277/17 272/272/20 46/46/119
f 43/43/83 285/285/201 289/289/198 85/85/70
f 5/5/51 283/283/193 288/288/200 81/81/82
f 9/9/150 280/280/197 287/287/192 67/67/50
f 32/32/71 284/284/199 286/286/194 55/55/22
f 81/81/82 288/288/200 285/285/201 43/43/83
f 85/85/70 289/289/198 284/284/199 32/32/71
f 55/55/22 286/286/194 282/282/195 6/6/23
f 67/67/50 287/287/192 283/283/193 5/5/51
f 9/9/150 293/293/196 280/280/197
f 295/295/202 6/6/23 282/282/195
